<svg xmlns="http://www.w3.org/2000/svg" version="1.1" xmlns:xlink="http://www.w3.org/1999/xlink" xmlns:svgjs="http://svgjs.com/svgjs" width="1440" height="628" preserveAspectRatio="none" viewBox="0 0 1440 628"><g mask="url(&quot;#SvgjsMask1826&quot;)" fill="none"><rect width="1440" height="628" x="0" y="0" fill="url(#SvgjsLinearGradient1827)"></rect><use xlink:href="#SvgjsSymbol1834" x="0" y="0"></use><use xlink:href="#SvgjsSymbol1834" x="720" y="0"></use></g><defs><mask id="SvgjsMask1826"><rect width="1440" height="628" fill="#ffffff"></rect></mask><linearGradient x1="50%" y1="100%" x2="50%" y2="0%" gradientUnits="userSpaceOnUse" id="SvgjsLinearGradient1827"><stop stop-color="#0e2a47" offset="0"></stop><stop stop-color="rgba(213, 217, 223, 1)" offset="1"></stop></linearGradient><path d="M-1 0 a1 1 0 1 0 2 0 a1 1 0 1 0 -2 0z" id="SvgjsPath1831"></path><path d="M-3 0 a3 3 0 1 0 6 0 a3 3 0 1 0 -6 0z" id="SvgjsPath1832"></path><path d="M-5 0 a5 5 0 1 0 10 0 a5 5 0 1 0 -10 0z" id="SvgjsPath1830"></path><path d="M2 -2 L-2 2z" id="SvgjsPath1829"></path><path d="M6 -6 L-6 6z" id="SvgjsPath1828"></path><path d="M30 -30 L-30 30z" id="SvgjsPath1833"></path></defs><symbol id="SvgjsSymbol1834"><use xlink:href="#SvgjsPath1828" x="30" y="30" stroke="rgba(195, 208, 223, 1)"></use><use xlink:href="#SvgjsPath1829" x="30" y="90" stroke="rgba(195, 208, 223, 1)"></use><use xlink:href="#SvgjsPath1828" x="30" y="150" stroke="rgba(195, 208, 223, 1)"></use><use xlink:href="#SvgjsPath1828" x="30" y="210" stroke="rgba(195, 208, 223, 1)"></use><use xlink:href="#SvgjsPath1830" x="30" y="270" stroke="rgba(30, 43, 206, 1)"></use><use xlink:href="#SvgjsPath1830" x="30" y="330" stroke="rgba(30, 43, 206, 1)"></use><use xlink:href="#SvgjsPath1828" x="30" y="390" stroke="rgba(30, 43, 206, 1)"></use><use xlink:href="#SvgjsPath1828" x="30" y="450" stroke="rgba(195, 208, 223, 1)"></use><use xlink:href="#SvgjsPath1831" x="30" y="510" stroke="rgba(30, 43, 206, 1)"></use><use xlink:href="#SvgjsPath1830" x="30" y="570" stroke="rgba(30, 43, 206, 1)"></use><use xlink:href="#SvgjsPath1828" x="30" y="630" stroke="rgba(30, 43, 206, 1)"></use><use xlink:href="#SvgjsPath1828" x="90" y="30" stroke="rgba(195, 208, 223, 1)"></use><use xlink:href="#SvgjsPath1830" x="90" y="90" stroke="rgba(30, 43, 206, 1)"></use><use xlink:href="#SvgjsPath1830" x="90" y="150" stroke="rgba(30, 43, 206, 1)"></use><use xlink:href="#SvgjsPath1828" x="90" y="210" stroke="rgba(30, 43, 206, 1)"></use><use xlink:href="#SvgjsPath1828" x="90" y="270" stroke="rgba(30, 43, 206, 1)"></use><use xlink:href="#SvgjsPath1830" x="90" y="330" stroke="rgba(195, 208, 223, 1)"></use><use xlink:href="#SvgjsPath1829" x="90" y="390" stroke="rgba(195, 208, 223, 1)"></use><use xlink:href="#SvgjsPath1830" x="90" y="450" stroke="rgba(30, 43, 206, 1)"></use><use xlink:href="#SvgjsPath1828" x="90" y="510" stroke="rgba(195, 208, 223, 1)"></use><use xlink:href="#SvgjsPath1828" x="90" y="570" stroke="rgba(30, 43, 206, 1)"></use><use xlink:href="#SvgjsPath1828" x="90" y="630" stroke="rgba(195, 208, 223, 1)"></use><use xlink:href="#SvgjsPath1832" x="150" y="30" stroke="rgba(30, 43, 206, 1)"></use><use xlink:href="#SvgjsPath1829" x="150" y="90" stroke="rgba(30, 43, 206, 1)"></use><use xlink:href="#SvgjsPath1829" x="150" y="150" stroke="rgba(30, 43, 206, 1)"></use><use xlink:href="#SvgjsPath1832" x="150" y="210" stroke="rgba(30, 43, 206, 1)"></use><use xlink:href="#SvgjsPath1828" x="150" y="270" stroke="rgba(30, 43, 206, 1)"></use><use xlink:href="#SvgjsPath1831" x="150" y="330" stroke="rgba(195, 208, 223, 1)"></use><use xlink:href="#SvgjsPath1831" x="150" y="390" stroke="rgba(30, 43, 206, 1)"></use><use xlink:href="#SvgjsPath1830" x="150" y="450" stroke="rgba(30, 43, 206, 1)"></use><use xlink:href="#SvgjsPath1829" x="150" y="510" stroke="rgba(30, 43, 206, 1)"></use><use xlink:href="#SvgjsPath1832" x="150" y="570" stroke="rgba(30, 43, 206, 1)"></use><use xlink:href="#SvgjsPath1828" x="150" y="630" stroke="rgba(30, 43, 206, 1)"></use><use xlink:href="#SvgjsPath1830" x="210" y="30" stroke="rgba(30, 43, 206, 1)"></use><use xlink:href="#SvgjsPath1832" x="210" y="90" stroke="rgba(195, 208, 223, 1)"></use><use xlink:href="#SvgjsPath1829" x="210" y="150" stroke="rgba(195, 208, 223, 1)"></use><use xlink:href="#SvgjsPath1830" x="210" y="210" stroke="rgba(195, 208, 223, 1)"></use><use xlink:href="#SvgjsPath1832" x="210" y="270" stroke="rgba(195, 208, 223, 1)"></use><use xlink:href="#SvgjsPath1828" x="210" y="330" stroke="rgba(195, 208, 223, 1)"></use><use xlink:href="#SvgjsPath1831" x="210" y="390" stroke="rgba(195, 208, 223, 1)"></use><use xlink:href="#SvgjsPath1830" x="210" y="450" stroke="rgba(195, 208, 223, 1)"></use><use xlink:href="#SvgjsPath1832" x="210" y="510" stroke="rgba(30, 43, 206, 1)"></use><use xlink:href="#SvgjsPath1833" x="210" y="570" stroke="rgba(195, 208, 223, 1)" stroke-width="3"></use><use xlink:href="#SvgjsPath1830" x="210" y="630" stroke="rgba(30, 43, 206, 1)"></use><use xlink:href="#SvgjsPath1828" x="270" y="30" stroke="rgba(195, 208, 223, 1)"></use><use xlink:href="#SvgjsPath1833" x="270" y="90" stroke="rgba(30, 43, 206, 1)" stroke-width="3"></use><use xlink:href="#SvgjsPath1830" x="270" y="150" stroke="rgba(195, 208, 223, 1)"></use><use xlink:href="#SvgjsPath1830" x="270" y="210" stroke="rgba(195, 208, 223, 1)"></use><use xlink:href="#SvgjsPath1829" x="270" y="270" stroke="rgba(195, 208, 223, 1)"></use><use xlink:href="#SvgjsPath1829" x="270" y="330" stroke="rgba(30, 43, 206, 1)"></use><use xlink:href="#SvgjsPath1829" x="270" y="390" stroke="rgba(195, 208, 223, 1)"></use><use xlink:href="#SvgjsPath1829" x="270" y="450" stroke="rgba(195, 208, 223, 1)"></use><use xlink:href="#SvgjsPath1831" x="270" y="510" stroke="rgba(30, 43, 206, 1)"></use><use xlink:href="#SvgjsPath1830" x="270" y="570" stroke="rgba(30, 43, 206, 1)"></use><use xlink:href="#SvgjsPath1830" x="270" y="630" stroke="rgba(30, 43, 206, 1)"></use><use xlink:href="#SvgjsPath1829" x="330" y="30" stroke="rgba(30, 43, 206, 1)"></use><use xlink:href="#SvgjsPath1831" x="330" y="90" stroke="rgba(195, 208, 223, 1)"></use><use xlink:href="#SvgjsPath1829" x="330" y="150" stroke="rgba(195, 208, 223, 1)"></use><use xlink:href="#SvgjsPath1828" x="330" y="210" stroke="rgba(195, 208, 223, 1)"></use><use xlink:href="#SvgjsPath1833" x="330" y="270" stroke="rgba(30, 43, 206, 1)" stroke-width="3"></use><use xlink:href="#SvgjsPath1829" x="330" y="330" stroke="rgba(195, 208, 223, 1)"></use><use xlink:href="#SvgjsPath1830" x="330" y="390" stroke="rgba(30, 43, 206, 1)"></use><use xlink:href="#SvgjsPath1828" x="330" y="450" stroke="rgba(30, 43, 206, 1)"></use><use xlink:href="#SvgjsPath1830" x="330" y="510" stroke="rgba(195, 208, 223, 1)"></use><use xlink:href="#SvgjsPath1828" x="330" y="570" stroke="rgba(195, 208, 223, 1)"></use><use xlink:href="#SvgjsPath1830" x="330" y="630" stroke="rgba(195, 208, 223, 1)"></use><use xlink:href="#SvgjsPath1828" x="390" y="30" stroke="rgba(195, 208, 223, 1)"></use><use xlink:href="#SvgjsPath1829" x="390" y="90" stroke="rgba(30, 43, 206, 1)"></use><use xlink:href="#SvgjsPath1828" x="390" y="150" stroke="rgba(30, 43, 206, 1)"></use><use xlink:href="#SvgjsPath1828" x="390" y="210" stroke="rgba(195, 208, 223, 1)"></use><use xlink:href="#SvgjsPath1833" x="390" y="270" stroke="rgba(30, 43, 206, 1)" stroke-width="3"></use><use xlink:href="#SvgjsPath1830" x="390" y="330" stroke="rgba(195, 208, 223, 1)"></use><use xlink:href="#SvgjsPath1828" x="390" y="390" stroke="rgba(195, 208, 223, 1)"></use><use xlink:href="#SvgjsPath1829" x="390" y="450" stroke="rgba(195, 208, 223, 1)"></use><use xlink:href="#SvgjsPath1828" x="390" y="510" stroke="rgba(195, 208, 223, 1)"></use><use xlink:href="#SvgjsPath1829" x="390" y="570" stroke="rgba(30, 43, 206, 1)"></use><use xlink:href="#SvgjsPath1831" x="390" y="630" stroke="rgba(30, 43, 206, 1)"></use><use xlink:href="#SvgjsPath1831" x="450" y="30" stroke="rgba(30, 43, 206, 1)"></use><use xlink:href="#SvgjsPath1829" x="450" y="90" stroke="rgba(30, 43, 206, 1)"></use><use xlink:href="#SvgjsPath1830" x="450" y="150" stroke="rgba(195, 208, 223, 1)"></use><use xlink:href="#SvgjsPath1830" x="450" y="210" stroke="rgba(195, 208, 223, 1)"></use><use xlink:href="#SvgjsPath1829" x="450" y="270" stroke="rgba(30, 43, 206, 1)"></use><use xlink:href="#SvgjsPath1831" x="450" y="330" stroke="rgba(30, 43, 206, 1)"></use><use xlink:href="#SvgjsPath1828" x="450" y="390" stroke="rgba(195, 208, 223, 1)"></use><use xlink:href="#SvgjsPath1831" x="450" y="450" stroke="rgba(195, 208, 223, 1)"></use><use xlink:href="#SvgjsPath1829" x="450" y="510" stroke="rgba(30, 43, 206, 1)"></use><use xlink:href="#SvgjsPath1832" x="450" y="570" stroke="rgba(195, 208, 223, 1)"></use><use xlink:href="#SvgjsPath1830" x="450" y="630" stroke="rgba(30, 43, 206, 1)"></use><use xlink:href="#SvgjsPath1830" x="510" y="30" stroke="rgba(30, 43, 206, 1)"></use><use xlink:href="#SvgjsPath1828" x="510" y="90" stroke="rgba(195, 208, 223, 1)"></use><use xlink:href="#SvgjsPath1831" x="510" y="150" stroke="rgba(30, 43, 206, 1)"></use><use xlink:href="#SvgjsPath1828" x="510" y="210" stroke="rgba(195, 208, 223, 1)"></use><use xlink:href="#SvgjsPath1829" x="510" y="270" stroke="rgba(30, 43, 206, 1)"></use><use xlink:href="#SvgjsPath1828" x="510" y="330" stroke="rgba(195, 208, 223, 1)"></use><use xlink:href="#SvgjsPath1830" x="510" y="390" stroke="rgba(195, 208, 223, 1)"></use><use xlink:href="#SvgjsPath1830" x="510" y="450" stroke="rgba(30, 43, 206, 1)"></use><use xlink:href="#SvgjsPath1828" x="510" y="510" stroke="rgba(195, 208, 223, 1)"></use><use xlink:href="#SvgjsPath1830" x="510" y="570" stroke="rgba(195, 208, 223, 1)"></use><use xlink:href="#SvgjsPath1829" x="510" y="630" stroke="rgba(30, 43, 206, 1)"></use><use xlink:href="#SvgjsPath1831" x="570" y="30" stroke="rgba(195, 208, 223, 1)"></use><use xlink:href="#SvgjsPath1830" x="570" y="90" stroke="rgba(195, 208, 223, 1)"></use><use xlink:href="#SvgjsPath1830" x="570" y="150" stroke="rgba(30, 43, 206, 1)"></use><use xlink:href="#SvgjsPath1828" x="570" y="210" stroke="rgba(30, 43, 206, 1)"></use><use xlink:href="#SvgjsPath1831" x="570" y="270" stroke="rgba(195, 208, 223, 1)"></use><use xlink:href="#SvgjsPath1828" x="570" y="330" stroke="rgba(30, 43, 206, 1)"></use><use xlink:href="#SvgjsPath1831" x="570" y="390" stroke="rgba(195, 208, 223, 1)"></use><use xlink:href="#SvgjsPath1829" x="570" y="450" stroke="rgba(195, 208, 223, 1)"></use><use xlink:href="#SvgjsPath1832" x="570" y="510" stroke="rgba(195, 208, 223, 1)"></use><use xlink:href="#SvgjsPath1832" x="570" y="570" stroke="rgba(30, 43, 206, 1)"></use><use xlink:href="#SvgjsPath1831" x="570" y="630" stroke="rgba(30, 43, 206, 1)"></use><use xlink:href="#SvgjsPath1832" x="630" y="30" stroke="rgba(195, 208, 223, 1)"></use><use xlink:href="#SvgjsPath1832" x="630" y="90" stroke="rgba(195, 208, 223, 1)"></use><use xlink:href="#SvgjsPath1828" x="630" y="150" stroke="rgba(30, 43, 206, 1)"></use><use xlink:href="#SvgjsPath1828" x="630" y="210" stroke="rgba(30, 43, 206, 1)"></use><use xlink:href="#SvgjsPath1832" x="630" y="270" stroke="rgba(30, 43, 206, 1)"></use><use xlink:href="#SvgjsPath1828" x="630" y="330" stroke="rgba(30, 43, 206, 1)"></use><use xlink:href="#SvgjsPath1829" x="630" y="390" stroke="rgba(30, 43, 206, 1)"></use><use xlink:href="#SvgjsPath1830" x="630" y="450" stroke="rgba(30, 43, 206, 1)"></use><use xlink:href="#SvgjsPath1830" x="630" y="510" stroke="rgba(195, 208, 223, 1)"></use><use xlink:href="#SvgjsPath1830" x="630" y="570" stroke="rgba(30, 43, 206, 1)"></use><use xlink:href="#SvgjsPath1828" x="630" y="630" stroke="rgba(30, 43, 206, 1)"></use><use xlink:href="#SvgjsPath1830" x="690" y="30" stroke="rgba(195, 208, 223, 1)"></use><use xlink:href="#SvgjsPath1829" x="690" y="90" stroke="rgba(30, 43, 206, 1)"></use><use xlink:href="#SvgjsPath1832" x="690" y="150" stroke="rgba(195, 208, 223, 1)"></use><use xlink:href="#SvgjsPath1830" x="690" y="210" stroke="rgba(195, 208, 223, 1)"></use><use xlink:href="#SvgjsPath1829" x="690" y="270" stroke="rgba(195, 208, 223, 1)"></use><use xlink:href="#SvgjsPath1831" x="690" y="330" stroke="rgba(30, 43, 206, 1)"></use><use xlink:href="#SvgjsPath1830" x="690" y="390" stroke="rgba(30, 43, 206, 1)"></use><use xlink:href="#SvgjsPath1831" x="690" y="450" stroke="rgba(195, 208, 223, 1)"></use><use xlink:href="#SvgjsPath1828" x="690" y="510" stroke="rgba(195, 208, 223, 1)"></use><use xlink:href="#SvgjsPath1828" x="690" y="570" stroke="rgba(195, 208, 223, 1)"></use><use xlink:href="#SvgjsPath1830" x="690" y="630" stroke="rgba(195, 208, 223, 1)"></use></symbol></svg>